<svg width="543" height="345" viewBox="0 0 543 345" fill="none" xmlns="http://www.w3.org/2000/svg">
<path d="M91.4222 194.982C118.759 170.475 145.833 140.876 171.886 107H174.081C186.918 107 198.844 109.866 205.988 114.669C209.024 116.65 211.765 119.055 214.133 121.819C218.504 127.038 219.505 130.122 220.154 132.841L220.34 133.63L222.554 132.521L222.342 131.847C221.733 129.885 221.033 127.667 218.183 123.204C216.861 121.043 214.871 118.837 212.272 116.65C207.124 112.431 200.917 108.238 190.41 106.109C185.513 105.064 180.095 104.525 173.876 104.467C197.002 74.3811 214.769 47.4819 226.681 24.4941H227.041C227.105 24.4941 233.71 24.3595 233.71 21.3457C233.71 19.0438 232.362 18.6975 231.56 18.6975C229.814 18.6975 227.471 19.8325 224.782 21.9806C214.249 22.9616 203.465 24.8981 192.695 27.7451C192.926 26.1805 193.042 24.4877 193.042 22.6025C193.042 17.2996 192.496 12.9714 191.379 9.37414C190.108 5.28315 189.428 3.32101 188.748 2.50666C188.086 1.71796 187.554 1.17934 187.008 0.775366L186.623 0.486816L184.582 2.01292L186.661 3.74422C188.266 5.78972 190.493 13.0804 190.493 23.1027C190.493 25.0199 190.359 26.7064 190.07 28.3671C167.54 34.8755 148.092 44.4938 132.251 56.9592C116.262 69.5335 108.162 82.2746 108.162 94.8297C108.162 102.576 111.84 106.506 119.093 106.506C124.35 106.506 130.961 104.115 138.753 99.3888C146.41 94.7527 154.004 88.815 161.334 81.7488C168.677 74.6633 175.159 66.5839 181.135 57.0553C186.899 47.8602 190.622 39.0563 192.194 30.8807C202.291 27.7067 212.869 25.5137 223.658 24.3723C221.515 28.2517 215.057 37.7995 205.924 50.5726C200.705 57.8697 194.46 66.3851 187.355 75.888C179.794 86.0001 172.547 95.4389 165.204 104.737C152.033 105.371 138.188 107.821 124.048 112.021C110.383 116.08 97.3402 121.453 85.2668 127.994C73.4951 134.374 62.1855 141.735 51.6718 149.866C31.3441 165.46 16.4594 182.241 7.4348 199.733C3.14075 208.063 0.964844 215.629 0.964844 222.221C0.964844 231.968 7.80066 236.405 14.1551 236.405C24.3927 236.405 36.4469 232.622 49.9837 225.164C63.5013 217.72 77.4361 207.563 91.3966 194.988L91.4222 194.982ZM144.337 92.797C133.952 100.203 125.21 103.961 118.355 103.961C114.934 103.961 112.719 101.062 112.719 96.5802C112.719 91.8672 118.528 80.8254 131.5 66.7955C137.54 60.2679 145.672 53.8236 156.346 47.0908C166.558 40.6529 177.432 35.5744 189.55 31.5732C187.412 41.7622 181.995 52.6502 173.439 63.9677C164.659 75.5802 154.864 85.2819 144.337 92.797ZM34.3416 170.006C44.7654 159.593 56.351 149.917 68.771 141.241C81.467 132.38 96.4929 124.64 113.438 118.247C129.632 112.136 146.256 108.468 162.881 107.346C149.915 123.383 137.354 138.215 125.537 151.45C113.168 165.3 99.9205 178.913 86.1654 191.911C72.4553 204.857 59.188 215.206 46.7423 222.67C34.3544 230.095 23.3979 233.866 14.1872 233.866C7.61452 233.866 3.53229 229.595 3.53229 222.721C3.53229 209.23 15.0537 189.525 34.348 170.013L34.3416 170.006Z" fill="#A07F2B"/>
<path d="M538.803 82.2038C536.133 79.3824 532.314 77.8883 527.757 77.8883C512.468 77.8883 496.248 85.179 483.25 97.888C477.012 104.121 471.492 110.777 466.857 117.663C455.65 134.104 450.413 149.461 447.98 159.67C437.653 155.617 431.51 146.146 431.51 134.2C431.51 127.211 434.816 117.997 441.337 106.814C447.948 95.477 455.355 85.5638 463.366 77.3305C464.251 78.9848 464.816 80.6905 465.131 82.6462L465.24 83.3387L467.486 82.7809L467.403 82.2102C467.043 79.703 466.337 77.4972 465.31 75.6377C468.282 72.6944 471.023 70.3668 473.661 68.5329L474.784 67.757L468.59 66.0386L462.178 72.4444C461.081 71.739 459.752 71.3864 458.237 71.3864C452.03 71.3864 446.427 73.7781 441.106 78.7027C438.301 81.2996 436.266 83.6337 434.97 85.7433C430.066 88.9494 418.955 95.8554 407.787 100.395C402.774 102.473 399.199 103.479 396.862 103.479C395.226 103.479 394.494 102.672 394.494 100.876C394.513 100.716 394.815 99.6065 398.897 93.8291C403.531 87.2694 403.531 85.7946 403.531 85.3073C403.531 80.838 401.272 79.9018 399.372 79.9018C397.113 79.9018 392.626 81.8447 385.354 85.9934C389.231 80.4917 389.725 78.536 389.725 77.5293C389.725 75.2401 387.748 73.3741 385.315 73.3741C381.471 73.3741 375.334 77.4523 366.535 85.8523C363.954 88.43 361.284 91.0975 355.283 96.0926C351.785 99.0102 349.089 101.043 346.541 102.704C341.271 106.326 333.909 109.988 329.332 109.988C327.432 109.988 325.93 109.302 325.006 108C323.876 106.416 323.652 104.044 324.422 101.812C324.589 101.37 326.97 97.4456 328.883 94.2844C331.778 89.5073 333.241 85.9805 333.241 83.794C333.241 81.2804 331.765 79.8954 329.088 79.8954C325.853 79.8954 319.672 82.6783 310.224 88.3915C315.077 82.1781 317.785 78.427 319.101 76.0865C321.277 72.2199 321.855 69.5268 320.873 67.8468C320.192 66.6862 318.819 66.1027 316.784 66.1027C314.249 66.1027 311.649 67.2697 308.369 69.8603C307.053 70.8221 305.911 71.7967 304.897 72.656C304.441 73.0471 303.998 73.419 303.574 73.7653C302.496 74.6438 301.084 75.939 299.133 77.728L297.271 79.4337C294.71 81.7677 292.611 83.5439 291.077 84.8328L290.05 85.6984L290.224 85.9293L288.433 87.2758C283.901 90.3793 276.834 94.7717 269.524 99.0358C261.719 103.582 253.105 106.878 248.073 107.224C246.064 107.41 244.581 107.102 243.676 106.307C242.944 105.666 242.546 104.666 242.501 103.326L242.489 103.21C242.206 101.973 244.69 97.67 258.131 84.2428C260.197 82.1781 262.56 79.9082 264.459 78.0871C265.653 76.9457 266.629 76.0031 267.168 75.4709L269.53 73.1112L262.752 71.8224L259.498 74.8233C257.065 74.2911 255.101 74.2847 253.888 74.3809C250.217 74.5091 245.916 76.3109 240.743 79.8889C237.001 82.4731 234.684 84.6789 233.817 86.4358C228.522 88.4941 223.881 89.2828 219.735 88.8212C221.622 85.8523 222.546 83.3002 222.546 81.0431C222.546 77.9589 220.068 75.8877 216.384 75.8877C213.624 75.8877 210.254 78.7027 210.222 81.9986C210.12 82.7488 210.1 83.4221 210.171 84.0184C202.674 89.5201 199.176 93.765 199.176 97.343C199.176 101.396 201.166 102.248 202.828 102.248C205.017 102.248 207.642 101.062 210.627 98.728C213.553 96.4389 216.089 93.7714 218.175 90.7897C222.572 91.6489 227.739 91.0334 233.567 88.9622C234.003 90.5332 235.556 91.9696 237.88 91.9696C239.549 91.867 242.482 90.5396 246.776 87.9363C241.064 94.6883 238.336 99.3564 238.451 102.159C238.83 107.077 241.904 109.558 247.611 109.558C248.041 109.558 248.484 109.545 248.939 109.513C253.323 109.116 259.613 106.795 267.13 102.793C276.051 98.0483 280.981 95.2398 284.132 93.0981L293.472 86.6987L293.183 86.314L304.537 76.1186C306.155 74.6502 307.74 73.3549 309.396 72.1366C313.305 69.0395 315.571 68.3854 316.777 68.3854C317.13 68.3854 317.58 68.4367 317.708 68.6804C317.862 68.9625 317.978 70.0013 315.744 73.3998C312.997 77.4523 304.942 86.936 293.703 99.9207L293.144 100.562L297.81 102.736H297.952C298.542 102.736 298.966 102.402 305.404 94.3164C305.789 94.1048 307.111 93.3546 309.332 91.9824C311.071 90.9051 312.721 89.9625 314.319 89.0456C315.115 88.5903 315.879 88.1543 316.598 87.7311C318.504 86.6154 320.789 85.3906 323.588 83.9928C326.585 82.4923 327.952 82.1781 328.575 82.1781C329.146 82.1781 329.441 82.2551 329.441 82.4025C329.409 82.7231 328.825 84.0633 325.276 89.4624C322.426 93.797 320.706 97.157 320.166 99.4462L320.147 99.5937C320.147 100.049 320.096 100.588 320.038 101.152C319.813 103.473 319.505 106.654 322.214 109.571C324.03 111.386 326.598 112.264 330.07 112.264C333.768 112.264 338.601 110.347 344.846 106.397C351.098 102.447 355.726 99.0615 358.999 96.0413L367.08 88.5198V88.7634L371.4 84.7815C373.473 83.0373 375.829 81.2099 379.275 78.6642C381.901 76.7213 384.128 75.6569 385.546 75.6569C385.598 75.6569 385.636 75.6569 385.649 75.6569C385.649 75.6761 385.656 75.7082 385.656 75.7659C385.63 76.6123 382.979 80.9085 365.488 100.164L364.898 100.818L371.156 103.633L371.47 103.281C375.187 99.1063 378.364 95.2205 381.471 91.059C391.67 85.1662 397.774 82.1845 399.61 82.1845C400.104 82.1845 400.213 82.2679 400.219 82.7167C399.911 83.39 397.203 86.7949 395.213 89.2957C391.657 93.7714 389.93 96.8108 389.93 98.5998C389.93 103.249 393.756 105.762 397.35 105.762C400.945 105.762 407.293 103.633 415.829 99.427C422.53 96.1311 428.397 92.8096 433.359 89.5137C433.269 89.9625 433.224 90.3986 433.224 90.8282C433.224 94.2587 434.803 94.9833 436.125 94.9833C438.23 94.9833 442.139 92.9186 448.288 88.539C434.443 105.942 427.697 119.516 427.697 129.949C427.697 145.627 435.066 157.554 447.441 161.972C446.465 167.364 446.17 171.686 446.53 175.155L446.587 175.732H448.506L448.558 175.149C448.93 170.827 449.533 166.8 450.406 162.85C453.173 163.588 456.145 163.947 459.469 163.947C468.886 163.947 478.539 161.632 488.982 156.868C499.136 152.238 507.891 146.537 515.754 139.458C523.38 132.591 529.657 125.371 534.939 117.394C540.126 109.558 542.821 102.402 542.95 96.1247C543.284 90.2575 541.846 85.4483 538.791 82.223L538.803 82.2038ZM460.233 161.645C456.851 161.645 453.738 161.286 450.965 160.574C453.449 150.462 457.891 140.234 464.168 130.148C470.574 119.863 477.628 111.091 485.144 104.069C493.206 96.5479 500.638 90.8731 507.866 86.7308C515.459 82.3769 521.813 80.1711 526.749 80.1711C536.114 80.1711 540.665 84.9674 540.665 94.8294C540.665 103.37 536.281 113.021 527.635 123.511C518.771 134.264 507.898 143.363 495.305 150.571C482.461 157.919 470.664 161.645 460.227 161.645H460.233ZM444.861 81.7549C450.612 76.3815 455.278 73.6499 458.731 73.6499C459.36 73.6499 460.021 73.823 460.734 74.1757L454.784 80.8059C441.671 90.6679 437.576 92.521 436.305 92.6685C436.292 92.5979 436.285 92.4825 436.285 92.3158C436.285 91.1552 437.775 88.3851 444.867 81.7485L444.861 81.7549ZM237.72 89.238C237.72 88.9494 238.246 87.6285 245.12 82.5564C250.261 78.7604 254.074 76.779 256.41 76.6636C256.719 76.6636 257.097 76.6957 257.54 76.747L252.745 81.5369C241.782 88.4621 238.669 89.6099 237.79 89.674C237.771 89.6547 237.72 89.5457 237.72 89.3149V89.2828V89.2444V89.238ZM212.443 82.3512C212.456 82.2999 212.462 82.2486 212.475 82.1973L212.488 82.1332C212.815 79.8633 215.171 77.9204 216.872 77.9204C217.578 77.9204 218.201 78.0935 218.753 78.4398C216.686 79.626 214.536 80.9149 212.437 82.3512H212.443ZM216.628 88.0517C215.434 87.6157 214.478 86.9809 213.72 86.1088C216.082 83.8645 218.245 81.9857 220.171 80.4981C220.222 80.6648 220.248 80.8444 220.248 81.0367C220.248 81.9344 219.613 83.8773 216.628 88.0517ZM212.032 87.4938C212.912 88.5134 214.003 89.2957 215.344 89.8599C210.241 96.5607 206.024 99.9528 202.815 99.9528C202.603 99.9528 202.456 99.4847 202.456 98.837C202.456 97.7341 204.131 94.8615 212.032 87.4938Z" fill="#A07F2B"/>
<path d="M421.118 263.879C421.118 263.308 420.977 262.853 420.695 262.526C420.406 262.192 420.001 262.013 419.526 262.013C417.941 262.013 415.816 264.052 415.816 266.142C415.816 268.233 417.074 268.29 417.46 268.29C419.225 268.29 421.112 265.706 421.112 263.885L421.118 263.879Z" fill="#A07F2B"/>
<path d="M491.818 271.381C488.493 278.396 480.328 286.54 467.555 295.581C454.859 304.571 444.891 309.13 437.927 309.13C437.157 309.13 436.81 308.784 436.81 308.027C436.919 307.168 440.238 303.346 446.669 296.671C455.655 287.36 456.888 284.93 456.888 283.686C456.888 281.82 455.854 280.788 453.986 280.788C453.178 280.788 450.783 280.788 426.803 293.978L443.819 275.633L438.992 273.914L424.165 289.586L419.396 292.413C414.14 295.465 408.376 298.736 401.867 301.923C395.32 305.129 391.424 306.623 389.601 306.623C388.831 306.623 388.484 306.276 388.484 305.507C388.484 304.154 391.36 298.96 410.641 279.377L411.431 278.576L407.009 277.473L401.225 282.462C398.087 285.264 394.858 288.643 391.386 292.753C372.624 308.181 359.78 315.715 353.124 315.151C352.373 315.1 351.866 314.901 351.571 314.542C351.282 314.183 351.16 313.606 351.212 312.836C351.699 306.982 356.25 299.217 364.729 289.765C373.202 280.326 379.319 275.709 382.952 276.062C383.151 276.062 383.587 276.062 383.767 276.921C375.313 284.238 374.12 286.771 374.023 288.207C374.023 289.021 374.498 289.643 375.262 289.829L375.416 289.848C377.181 289.848 379.768 287.848 381.623 286.174C384.588 283.494 385.968 281.429 386.103 279.429V278.229L392.04 273.484L388.51 272.978L385.66 275.607C384.993 274.517 383.914 273.888 382.502 273.773C378.157 273.382 371.366 277.313 362.309 285.469C359.556 287.95 357.187 290.355 355.198 292.67C353.49 294.042 351.873 295.292 350.3 296.472C329.138 312.695 314.889 320.916 307.918 320.916C307.867 320.916 307.815 320.916 307.764 320.916C307.251 320.916 305.896 320.916 305.896 318.069C306.012 314.26 314.934 298.678 332.399 271.753L332.848 271.061L331.211 270.516H331.109C329.684 270.516 324.369 268.72 316.872 264.732C323.149 258.557 323.971 256.742 323.971 255.857C323.971 253.991 322.784 253.709 322.071 253.709C321.012 253.709 319.465 254.491 316.981 255.928C314.484 257.371 312.783 258.698 311.763 259.487C311.506 259.685 311.262 259.878 311.031 260.064C310.261 260.673 309.593 261.205 308.952 261.564L308.027 262.096L312.995 265.232C306.249 271.452 297.25 279.223 285.517 288.97L285.126 289.297L285.171 289.387L284.432 289.938C279.901 293.042 272.834 297.434 265.523 301.698C257.718 306.244 249.104 309.54 244.072 309.887C242.063 310.072 240.581 309.765 239.675 308.97C238.944 308.328 238.546 307.328 238.501 305.988L238.488 305.872C238.206 304.635 240.69 300.332 254.13 286.905C256.197 284.84 258.559 282.571 260.459 280.749C261.653 279.608 262.628 278.665 263.168 278.133L265.53 275.774L258.752 274.485L255.497 277.486C253.065 276.953 251.101 276.947 249.887 277.043C246.216 277.171 241.916 278.973 236.742 282.551C231.858 285.931 229.406 288.649 229.438 290.592L221.222 298.8C213.866 306.148 206.401 313.189 199.033 319.71C188.686 328.88 186.491 329.931 186.029 329.957C185.817 329.957 185.162 329.957 185.162 327.841C185.162 323.923 210.227 279.64 218.462 265.091C248.129 212.684 251.929 203.688 251.929 201.706C251.929 199.186 250.581 198.808 249.778 198.808C247.718 198.808 243.052 200.853 226.344 218.57C214.085 231.568 204.822 242.218 198.802 250.234C192.178 259.384 182.081 272.458 167.941 290.207C150.72 311.829 146.676 315.17 145.758 315.613C145.752 315.542 145.746 315.446 145.746 315.318C145.784 314.882 146.747 312.259 154.828 297.428C160.335 287.322 167.582 273.593 179.058 251.529C189.212 231.997 197.916 214.062 204.925 198.211L208.43 190.581L211.562 184.323C213.154 181.258 214.386 179.289 215.214 178.462C215.58 178.096 215.991 177.654 216.447 177.167C218.276 175.192 220.786 172.492 223.359 171.729C224.919 171.248 226.716 171.004 228.693 171.004H229.335V169.203L228.674 169.222C223.661 169.344 219.322 170.607 215.785 172.967C212.435 175.198 209.078 179.667 205.535 186.612L200.541 195.845L190.406 209.093C187.255 213.171 181.735 219.968 174.09 229.375L172.344 231.523C163.731 242.122 155.502 251.862 147.889 260.468C139.494 269.951 130.38 279.73 120.803 289.534C109.846 300.743 100.584 309.547 92.4777 316.453C84.2683 323.448 75.5967 329.668 66.7134 334.945C58.2665 339.96 50.9429 342.505 44.9479 342.505C34.691 342.505 32.4765 336.786 32.0401 335.035C31.8925 334.433 31.4111 334.465 31.3148 334.471H29.5625L29.9925 336.209C30.0696 339.248 34.3957 344.788 44.6912 344.788C51.2574 344.788 58.5746 342.634 67.0792 338.196C75.6224 333.74 84.0244 328.104 92.0412 321.448C100.424 314.491 109.352 306.289 118.569 297.081C127.953 287.707 136.573 278.589 144.199 269.971C152.626 260.448 160.265 251.375 167.562 242.238C175.875 231.824 181.902 224.226 186.273 218.525L194.219 208.016C159.86 272.792 142.44 308.463 142.44 314.061C142.44 316.985 143.332 318.466 145.091 318.466C147.594 318.466 156.067 311.605 200.58 252.254C205.342 245.867 213.269 236.678 226.267 222.462C238.392 209.202 244.522 204.059 247.615 202.29C245.966 205.188 241.935 211.767 237.673 218.686L214.707 256.05C206.812 268.951 199.161 282.724 191.966 296.972C185.092 310.585 181.606 320.127 181.606 325.346C181.606 331.06 184.001 332.259 186.016 332.259C187.505 332.259 191.273 330.361 207.3 315.529L230.369 293.138C231.132 294.016 232.333 294.645 233.867 294.645C235.536 294.542 238.469 293.215 242.763 290.611C237.05 297.363 234.322 302.032 234.438 304.834C234.817 309.752 237.891 312.233 243.597 312.233C244.027 312.233 244.47 312.221 244.926 312.189C249.31 311.791 255.6 309.47 263.116 305.469C272.038 300.723 276.968 297.915 280.119 295.773L289.458 289.374L289.189 289.015C299.901 280.153 308.611 272.567 315.113 266.444C319.382 268.919 323.682 270.823 328.22 272.247L326.866 273.856C320.088 281.833 302.084 303.025 302.084 315.286C301.917 321.871 305.197 323.371 307.995 323.468C312.572 323.468 319.992 320.152 330.678 313.336C336.982 309.316 343.484 304.725 350.332 299.454C348.792 302.198 347.887 304.789 347.636 307.225C347.104 313.586 348.817 317.03 352.746 317.447C353.015 317.466 353.291 317.479 353.574 317.479C360.365 317.479 371.34 311.528 386.289 299.755C385.359 301.493 384.909 302.974 384.909 304.269C384.909 307.527 386.309 309.175 389.069 309.175C393.632 309.175 403.035 304.994 417.67 296.44L412.163 302.256L415.545 305.975L420.969 300.012C441.014 288.919 449.91 284.462 451.695 283.904C450.578 285.142 447.465 288.399 442.33 293.535C435.533 300.326 432.227 304.738 432.227 307.027C432.227 309.034 433.119 311.432 437.388 311.432C445.623 311.432 458.287 305.808 471.259 296.389C483.383 287.585 492.305 278.05 493.981 272.093L494.16 271.458L492.004 270.92L491.779 271.394L491.818 271.381ZM377.605 286.617C378.388 285.655 380.012 284.052 382.464 281.807C381.963 282.436 381.283 283.199 380.365 284.116C379.094 285.385 378.208 286.155 377.598 286.617H377.605ZM312.591 262.199L312.713 262.116C315.774 259.551 320.088 256.511 321.628 255.96C321.346 256.466 320.101 258.172 314.722 263.565L312.591 262.199ZM233.738 291.894C233.738 291.605 234.265 290.284 241.139 285.212C246.28 281.416 250.093 279.435 252.429 279.32C252.737 279.32 253.116 279.352 253.559 279.403L248.764 284.193C237.801 291.118 234.688 292.266 233.809 292.33C233.79 292.311 233.738 292.202 233.738 291.971V291.939V291.9V291.894Z" fill="#A07F2B"/>
<path d="M317.94 178.582C316.111 180.537 314.044 183.096 311.797 186.206C309.57 189.284 308.145 192.022 307.561 194.362C306.675 198.094 306.9 200.838 308.235 202.525C309.288 203.859 311.034 204.532 313.415 204.532C316.419 204.532 320.353 202.935 325.116 199.78C329.981 196.562 334.596 192.56 338.826 187.892C343.14 183.128 346.021 178.684 347.389 174.67C348.871 174.6 350.842 174.42 353.493 174.164L360.251 173.587C362.1 173.458 363.461 173.394 364.289 173.394C368.66 173.394 371.728 175.183 372.28 175.786L373.313 177.075L374.077 176.062L373.461 174.978L373.448 174.959C372.505 173.58 369.154 172.118 364.815 172.118C363.775 172.118 358.031 172.497 347.735 173.247C347.735 173.215 347.742 173.183 347.748 173.144C348.807 170.118 347.844 168.309 347.318 167.328C346.984 166.751 346.516 166.354 345.938 166.161C344.956 165.757 344.532 165.789 344.224 165.809C344.173 165.809 344.128 165.815 344.077 165.815H343.756V166.623L344.359 166.822L344.462 166.841C344.693 166.841 345.2 166.982 345.611 167.514C346.143 168.2 346.606 169.643 345.822 172.618L345.623 173.426C343.967 173.58 342.581 173.664 341.503 173.664H341.111C341.009 173.664 340.912 173.664 340.81 173.664C334.693 173.664 331.239 171.778 330.257 167.899L337.934 159.659C339.442 158.024 340.989 156.081 342.53 153.901C344.173 151.573 345.091 149.797 345.412 148.322C345.893 146.354 345.797 144.975 345.116 144.11C344.622 143.481 343.839 143.161 342.78 143.161C340.418 143.161 337.607 145.104 334.417 148.938C331.182 152.824 328.999 157.024 327.915 161.416C327.215 164.161 327.196 166.475 327.857 168.489L326.451 169.893C322.664 173.676 319.801 176.6 317.946 178.588L317.94 178.582ZM330.463 161.448C331.92 155.934 334.429 150.862 337.016 148.207C339.397 145.77 341.496 144.315 342.645 144.315C343.319 144.315 343.794 144.494 344.083 144.86C344.513 145.399 344.577 146.386 344.263 147.777C343.326 151.464 338.525 157.704 330.001 166.334C329.872 164.904 330.026 163.231 330.463 161.448ZM337.697 185.481C333.967 189.989 329.737 194.106 325.122 197.722C320.437 201.39 316.496 203.249 313.409 203.249C310.732 203.249 310.315 202.115 309.91 201.018C309.686 200.402 309.93 198.755 310.103 198.331C310.18 198.113 310.308 197.639 310.366 196.959C311.181 193.772 313.165 189.809 316.438 184.834C319.679 179.909 323.357 175.292 327.677 170.72L328.396 169.906C330.302 173.292 334.333 174.94 340.7 174.94C341.804 174.94 343.133 174.895 344.674 174.837L344.956 174.824C343.576 177.729 341.13 181.307 337.684 185.475L337.697 185.481Z" fill="#A07F2B"/>
</svg>
